<svg width="195" height="48" viewBox="0 0 195 48" fill="none" xmlns="http://www.w3.org/2000/svg">
<g filter="url(#filter0_d_1_119)">
<path d="M184.431 6H10.7453C8.60176 6 6.86406 7.79086 6.86406 10V38C6.86406 40.2091 8.60176 42 10.7453 42H184.431C186.575 42 188.313 40.2091 188.313 38V10C188.313 7.79086 186.575 6 184.431 6Z" fill="#15AF44"/>
</g>
<path d="M82.1609 14.8C83.7715 14.8 85.0035 15.0933 85.8569 15.68C86.7209 16.2667 87.1529 17.184 87.1529 18.432C87.1529 19.0827 87.0355 19.6427 86.8009 20.112C86.5769 20.5707 86.2462 20.9493 85.8089 21.248C85.3715 21.536 84.8382 21.7493 84.2089 21.888C83.5795 22.0267 82.8595 22.096 82.0489 22.096H81.0409V26H79.0249V15.072C79.4942 14.9653 80.0115 14.896 80.5769 14.864C81.1529 14.8213 81.6809 14.8 82.1609 14.8ZM82.3049 16.544C81.7929 16.544 81.3715 16.56 81.0409 16.592V20.368H82.0169C82.9875 20.368 83.7342 20.2347 84.2569 19.968C84.7795 19.6907 85.0409 19.1733 85.0409 18.416C85.0409 18.0533 84.9715 17.7493 84.8329 17.504C84.6942 17.2587 84.5022 17.0667 84.2569 16.928C84.0115 16.7893 83.7182 16.6933 83.3769 16.64C83.0462 16.576 82.6889 16.544 82.3049 16.544ZM96.0016 24.256V26H88.9936V14.912H91.0096V24.256H96.0016ZM105.307 26C105.157 25.5627 105.003 25.1307 104.843 24.704C104.683 24.2773 104.528 23.84 104.379 23.392H99.7067C99.5574 23.84 99.4027 24.2827 99.2427 24.72C99.0934 25.1467 98.9441 25.5733 98.7947 26H96.6987C97.1147 24.816 97.5094 23.7227 97.8827 22.72C98.2561 21.7173 98.6187 20.768 98.9707 19.872C99.3334 18.976 99.6907 18.1227 100.043 17.312C100.395 16.5013 100.757 15.7013 101.131 14.912H103.035C103.408 15.7013 103.771 16.5013 104.123 17.312C104.475 18.1227 104.827 18.976 105.179 19.872C105.541 20.768 105.909 21.7173 106.283 22.72C106.667 23.7227 107.067 24.816 107.483 26H105.307ZM102.043 17.056C101.797 17.6213 101.515 18.3093 101.195 19.12C100.885 19.9307 100.56 20.8107 100.219 21.76H103.867C103.525 20.8107 103.195 19.9253 102.875 19.104C102.555 18.2827 102.277 17.6 102.043 17.056ZM111.472 19.824C111.952 19.024 112.421 18.2133 112.88 17.392C113.338 16.5707 113.754 15.744 114.128 14.912H116.368C115.77 16.0427 115.146 17.168 114.496 18.288C113.856 19.3973 113.168 20.5173 112.432 21.648V26H110.416V21.68C109.68 20.5387 108.986 19.408 108.336 18.288C107.685 17.168 107.061 16.0427 106.464 14.912H108.832C109.205 15.744 109.616 16.5707 110.064 17.392C110.512 18.2133 110.981 19.024 111.472 19.824Z" fill="white"/>
<defs>
<filter id="filter0_d_1_119" x="0.864063" y="0" width="193.448" height="48" filterUnits="userSpaceOnUse" color-interpolation-filters="sRGB">
<feFlood flood-opacity="0" result="BackgroundImageFix"/>
<feColorMatrix in="SourceAlpha" type="matrix" values="0 0 0 0 0 0 0 0 0 0 0 0 0 0 0 0 0 0 127 0" result="hardAlpha"/>
<feOffset/>
<feGaussianBlur stdDeviation="3"/>
<feColorMatrix type="matrix" values="0 0 0 0 0.188235 0 0 0 0 0.188235 0 0 0 0 0.188235 0 0 0 0.412 0"/>
<feBlend mode="normal" in2="BackgroundImageFix" result="effect1_dropShadow_1_119"/>
<feBlend mode="normal" in="SourceGraphic" in2="effect1_dropShadow_1_119" result="shape"/>
</filter>
</defs>
</svg>
